<!--?xml version="1.0" standalone="no"?-->
              <svg id="sw-js-blob-svg" viewBox="0 0 100 100" xmlns="http://www.w3.org/2000/svg" version="1.1">
                    <defs> 
                        <linearGradient id="sw-gradient" x1="0" x2="1" y1="1" y2="0">
                            <stop id="stop1" stop-color="rgba(0, 0, 0, 1)" offset="0%"></stop>
                            <stop id="stop2" stop-color="rgba(0, 0, 0, 1)" offset="100%"></stop>
                        </linearGradient>
                    </defs>
                <path fill="url(#sw-gradient)" d="M12.5,-26.4C13.6,-18.8,10,-10.8,12.2,-5.7C14.4,-0.5,22.4,2,26.4,6.8C30.4,11.6,30.3,18.9,26.4,22.2C22.5,25.5,14.8,24.8,8.6,24.5C2.4,24.1,-2.3,24.1,-3.9,20.4C-5.5,16.7,-3.9,9.4,-5,5.7C-6.1,2,-9.8,2,-16.6,-1.6C-23.4,-5.3,-33.2,-12.5,-34.2,-17.9C-35.2,-23.3,-27.4,-26.8,-20.2,-31.6C-13,-36.4,-6.5,-42.3,-0.4,-41.7C5.7,-41.1,11.5,-33.9,12.5,-26.4Z" width="100%" height="100%" transform="translate(50 50)" stroke-width="0" style="transition: all 0.3s ease 0s;" stroke="url(#sw-gradient)"></path>
              </svg>